<svg xmlns="http://www.w3.org/2000/svg" width="1200" height="360" viewBox="0 0 1200 360" role="img" aria-labelledby="title desc">
  <title id="title">dsh-agent-teams</title>
  <desc id="desc">A DeepSeek Harness plugin that turns one captain session into a coordinated team of durable members working through dependent tasks and direct messages.</desc>

  <defs>
    <marker id="arrow" markerWidth="8" markerHeight="8" refX="7" refY="4" orient="auto" markerUnits="strokeWidth">
      <path d="M0 0L8 4L0 8Z" fill="#4F8CFF"/>
    </marker>
  </defs>

  <rect width="1200" height="360" rx="28" fill="#07111F"/>
  <path d="M656 42V318" stroke="#20334C" stroke-width="1.5"/>

  <g font-family="-apple-system, BlinkMacSystemFont, 'Segoe UI', 'PingFang SC', sans-serif">
    <text x="58" y="64" fill="#7F98BB" font-size="17" font-weight="650" letter-spacing="2.2">DEEPSEEK HARNESS · MULTI-AGENT ORCHESTRATION</text>
    <text x="58" y="142" fill="#F4F8FF" font-size="58" font-weight="760" letter-spacing="-2.1">dsh-agent-teams</text>
    <text x="58" y="197" fill="#C4D1E3" font-size="27" font-weight="520">One session becomes a coordinated team.</text>

    <g font-family="ui-monospace, SFMono-Regular, Menlo, monospace" font-size="15">
      <rect x="58" y="247" width="152" height="42" rx="21" fill="#102642" stroke="#315D91"/>
      <circle cx="81" cy="268" r="6" fill="#4F8CFF"/>
      <text x="98" y="274" fill="#BBD5FF" font-weight="700">CAPTAIN-LED</text>
      <text x="232" y="274" fill="#7189AA">MEMBERS · TASKS · MESSAGES · ARCHIVE</text>
    </g>

    <g font-family="ui-monospace, SFMono-Regular, Menlo, monospace">
      <text x="704" y="57" fill="#7F98BB" font-size="15" letter-spacing="1.7">LIVE TEAM GRAPH</text>

      <path d="M790 130C844 130 850 86 912 86" fill="none" stroke="#4F8CFF" stroke-width="1.8"/>
      <path d="M790 130H912" fill="none" stroke="#4F8CFF" stroke-width="1.8"/>
      <path d="M790 130C844 130 850 174 912 174" fill="none" stroke="#4F8CFF" stroke-width="1.8"/>
      <path d="M1040 86V174" fill="none" stroke="#35D5A4" stroke-width="1.4" stroke-dasharray="5 6"/>

      <circle cx="755" cy="130" r="38" fill="#102642" stroke="#4F8CFF" stroke-width="2"/>
      <circle cx="755" cy="130" r="25" fill="#4F8CFF"/>
      <path d="M745 132L753 140L767 121" fill="none" stroke="#FFFFFF" stroke-width="3" stroke-linecap="round" stroke-linejoin="round"/>
      <text x="712" y="184" fill="#AFC4E0" font-size="14">CAPTAIN</text>

      <g>
        <rect x="912" y="61" width="222" height="50" rx="12" fill="#101F33" stroke="#2B4567"/>
        <circle cx="936" cy="86" r="8" fill="#4F8CFF"/>
        <text x="955" y="82" fill="#F4F8FF" font-size="15" font-weight="700">RESEARCHER</text>
        <text x="955" y="101" fill="#7F98BB" font-size="12">collect evidence</text>
      </g>
      <g>
        <rect x="912" y="117" width="222" height="50" rx="12" fill="#101F33" stroke="#2B4567"/>
        <circle cx="936" cy="142" r="8" fill="#35D5A4"/>
        <text x="955" y="138" fill="#F4F8FF" font-size="15" font-weight="700">ENGINEER</text>
        <text x="955" y="157" fill="#7F98BB" font-size="12">build and verify</text>
      </g>
      <g>
        <rect x="912" y="173" width="222" height="50" rx="12" fill="#101F33" stroke="#2B4567"/>
        <circle cx="936" cy="198" r="8" fill="#F2BD62"/>
        <text x="955" y="194" fill="#F4F8FF" font-size="15" font-weight="700">REVIEWER</text>
        <text x="955" y="213" fill="#7F98BB" font-size="12">challenge result</text>
      </g>

      <rect x="700" y="250" width="124" height="54" rx="12" fill="#101F33" stroke="#2B4567"/>
      <text x="719" y="272" fill="#7F98BB" font-size="12">TASK t1</text>
      <text x="719" y="292" fill="#F4F8FF" font-size="14" font-weight="700">RESEARCH</text>
      <path d="M824 277H850" stroke="#4F8CFF" stroke-width="1.8" marker-end="url(#arrow)"/>

      <rect x="858" y="250" width="124" height="54" rx="12" fill="#101F33" stroke="#2B4567"/>
      <text x="877" y="272" fill="#7F98BB" font-size="12">TASK t2</text>
      <text x="877" y="292" fill="#F4F8FF" font-size="14" font-weight="700">IMPLEMENT</text>
      <path d="M982 277H1008" stroke="#4F8CFF" stroke-width="1.8" marker-end="url(#arrow)"/>

      <rect x="1016" y="250" width="118" height="54" rx="12" fill="#102A29" stroke="#2E7368"/>
      <text x="1035" y="272" fill="#75B8AC" font-size="12">TASK t3</text>
      <text x="1035" y="292" fill="#9AF0D9" font-size="14" font-weight="700">REVIEW</text>
    </g>
  </g>
</svg>
